<svg width="88" height="88" fill="none" xmlns="http://www.w3.org/2000/svg"><g clip-path="url(#pic_jackpot_88__a)"><path d="M88 0H0v88h88V0Z" fill="#E9F1F5"/><path d="M33.22 70.26v-.68c0-2.153-.02-1.953.016-4.106.01-.567-.152-.854-.68-1.1-6-2.797-10.38-7.235-13.16-13.225-1.85-3.986-2.614-8.201-2.343-12.596.47-7.589 3.62-13.87 9.316-18.855 3.195-2.797 6.916-4.653 11.042-5.683.118-.029.227-.057.337-.094.033-.011.054-.052.117-.118-.315-.645-.647-1.304-.96-1.97-.465-.986.057-1.826 1.148-1.828 3.757-.007 7.515-.007 11.273 0 1.058 0 1.583.843 1.144 1.8-.154.337-.33.664-.494.996-.164.331-.326.664-.522 1.067.561.162 1.099.302 1.626.47 10.117 3.304 16.588 10.089 18.682 20.54 2 9.931-1.113 18.39-8.503 25.272-1.945 1.812-4.207 3.177-6.618 4.286-.396.184-.53.407-.526.841.021 2.236.01 2.11.01 4.34v.636c1.214 0 2.364-.018 3.514 0 1.653.031 3.087 1.25 3.36 2.823.386 2.213-1.114 4.054-3.41 4.181-.119.006-.236 0-.354 0H30.11c-1.504 0-2.72-.524-3.436-1.911a3.478 3.478 0 0 1 3.022-5.095c1.151-.015 2.307.01 3.526.01Zm13.975-51.915c6.101 1.129 10.981 4.105 14.497 9.137 3.515 5.032 4.762 10.67 3.613 16.718-2.009 10.574-10.832 17.427-20.429 17.93A22.023 22.023 0 0 1 22.07 44.511c-1.016-5.066-.361-9.947 2.034-14.51 3.398-6.47 8.832-10.267 16.023-11.671-.353-.706-.662-1.38-1.018-2.025-.059-.107-.34-.187-.47-.143-1.614.512-3.277.919-4.817 1.601a24.272 24.272 0 0 0-14.26 25.519c.964 6.996 4.362 12.622 10.118 16.706 5.48 3.882 11.613 5.312 18.245 4.118 4.992-.9 9.352-3.15 12.917-6.793 5.264-5.38 7.587-11.883 7.059-19.365-.285-4-1.587-7.71-3.785-11.08-3.69-5.658-8.859-9.201-15.432-10.706a.572.572 0 0 0-.486.226c-.346.602-.643 1.238-1.002 1.957ZM37.891 36.14l-9.002-8.975c-2.901 3.381-4.56 7.294-4.856 11.816h12.66l1.198-2.84Zm25.405 2.849c-.327-4.537-1.934-8.468-4.823-11.794l-8.998 8.968 1.176 2.823 12.645.003ZM28.891 53.147l8.97-8.969-1.153-2.78h-12.66c.315 4.526 1.968 8.432 4.843 11.749Zm29.518.034c2.901-3.406 4.589-7.294 4.878-11.828-4.2 0-8.326 0-12.452.011a.503.503 0 0 0-.36.27c-.347.863-.665 1.736-.997 2.615l8.931 8.932Zm-27.73 1.74c3.383 2.934 7.288 4.562 11.764 4.877V47.156L39.65 45.95l-8.97 8.972Zm25.95.027-8.97-8.977-2.769 1.177v12.65c4.486-.336 8.389-1.948 11.74-4.854v.004ZM39.623 34.375c.799-.326 1.553-.706 2.353-.932.45-.13.526-.321.525-.721-.012-2.778-.09-5.558.027-8.33.062-1.497-.721-2.576-1.257-3.798-4.093.531-7.622 2.109-10.621 4.789l8.973 8.992Zm6.459-13.786c-.39.779-.77 1.53-1.134 2.279a1.066 1.066 0 0 0-.09.454c0 3.187 0 6.373-.009 9.56 0 .34.133.435.452.536a9.65 9.65 0 0 1 1.93.806c.393.227.582.18.876-.117 2.56-2.582 5.13-5.154 7.71-7.717.303-.303.638-.573.991-.886-3.115-2.78-6.647-4.363-10.726-4.915Zm5.647 45.002c-5.385 1.673-10.739 1.675-16.098.008v4.616H51.73v-4.624ZM43.67 72.6H30.231a2.825 2.825 0 0 0-.863.107 1.012 1.012 0 0 0-.741 1.071c.023.509.278.903.795 1.042.265.063.538.092.811.085h26.879c.253.005.506-.018.755-.068.526-.117.794-.495.841-1.001.047-.506-.18-.928-.68-1.11a2.59 2.59 0 0 0-.86-.125c-4.5-.005-8.999-.005-13.498-.001Zm.023-37.017c-2.543-.01-4.628 2.016-4.656 4.523a4.62 4.62 0 0 0 4.577 4.668c2.573.014 4.69-2.042 4.692-4.557a4.629 4.629 0 0 0-4.613-4.634ZM43.67 20.16l3.883-7.775h-7.765l3.882 7.775Z" fill="#0C5975"/><path d="M47.195 18.345c.359-.717.657-1.355 1.001-1.964a.572.572 0 0 1 .486-.226c6.573 1.506 11.743 5.05 15.432 10.706 2.198 3.37 3.5 7.08 3.785 11.08.532 7.48-1.792 13.986-7.06 19.364-3.564 3.648-7.924 5.894-12.916 6.794-6.632 1.197-12.766-.236-18.245-4.118-5.759-4.081-9.156-9.707-10.117-16.706a24.272 24.272 0 0 1 14.255-25.512c1.54-.682 3.203-1.09 4.816-1.601.136-.044.417.036.471.143.353.645.668 1.314 1.018 2.025-7.19 1.404-12.625 5.199-16.023 11.67-2.39 4.568-3.045 9.445-2.03 14.511a22.023 22.023 0 0 0 22.808 17.62c9.597-.504 18.42-7.357 20.429-17.931 1.15-6.047-.087-11.671-3.613-16.718-3.526-5.047-8.396-8.008-14.497-9.137Z" fill="#fff"/><path d="m37.891 36.14-1.197 2.84h-12.66c.296-4.522 1.954-8.435 4.855-11.816l9.002 8.975Zm25.405 2.848h-12.65l-1.177-2.824 9.004-8.97c2.882 3.332 4.49 7.264 4.823 11.794ZM28.891 53.147c-2.875-3.317-4.528-7.223-4.842-11.749h12.659l1.151 2.78-8.968 8.969Zm29.519.033-8.931-8.931c.331-.879.649-1.752.996-2.614a.504.504 0 0 1 .36-.27c4.126-.015 8.252-.013 12.452-.013-.29 4.534-1.977 8.423-4.878 11.829Zm-27.732 1.74 8.971-8.971 2.795 1.207v12.639c-4.477-.315-8.382-1.944-11.766-4.874Zm25.952.024c-3.351 2.906-7.254 4.518-11.74 4.854V47.147l2.77-1.177 8.97 8.974ZM39.623 34.375l-8.973-8.992c2.999-2.68 6.528-4.258 10.617-4.79.535 1.223 1.319 2.302 1.256 3.798-.117 2.773-.039 5.553-.027 8.33 0 .4-.075.59-.525.722-.793.23-1.55.606-2.348.932Zm6.459-13.786c4.079.552 7.61 2.135 10.726 4.915-.353.313-.688.588-.992.886a2376.616 2376.616 0 0 0-7.71 7.717c-.293.296-.482.344-.875.117a9.663 9.663 0 0 0-1.935-.806c-.319-.1-.453-.196-.452-.536.01-3.187 0-6.373.01-9.56a1.065 1.065 0 0 1 .09-.454c.367-.754.749-1.5 1.138-2.28Zm5.648 45.002v4.624h-16.1v-4.617c5.36 1.668 10.713 1.666 16.098-.007Z" fill="#fff"/><path d="M43.67 72.599h13.498a2.59 2.59 0 0 1 .86.125c.5.182.728.589.68 1.11-.048.521-.315.885-.841 1.001-.249.05-.502.073-.755.068H30.233a3.177 3.177 0 0 1-.811-.086c-.517-.138-.772-.533-.796-1.04a1.011 1.011 0 0 1 .742-1.073c.28-.08.572-.116.863-.107 4.48-.001 8.96 0 13.44.002Zm.023-37.017a4.628 4.628 0 0 1 4.613 4.633c0 2.515-2.118 4.57-4.692 4.556a4.623 4.623 0 0 1-4.577-4.667c.024-2.506 2.113-4.532 4.656-4.522Z" fill="#0C5975"/><path d="m43.671 20.16-3.882-7.775h7.765L43.67 20.16Z" fill="#fff"/></g><defs><clipPath id="pic_jackpot_88__a"><path fill="#fff" d="M0 0h88v88H0z"/></clipPath></defs></svg>